# This file uses centimeters as units for non-parametric coordinates.

mtllib Wood_Block_1.mtl
g default
v -99.330193 -197.500244 45.000500
v -97.500252 -199.330200 45.000500
v -95.000504 -200.000000 45.000500
v -95.000504 -199.330200 47.500252
v -95.000504 -197.500244 49.330193
v -95.000504 -195.000504 50.000000
v -97.500252 -195.000504 49.330193
v -99.330193 -195.000504 47.500252
v -100.000000 -195.000504 45.000500
v 97.500252 -199.330200 45.000500
v 99.330193 -197.500244 45.000500
v 100.000000 -195.000504 45.000500
v 99.330193 -195.000504 47.500252
v 97.500252 -195.000504 49.330193
v 95.000504 -195.000504 50.000000
v 95.000504 -197.500244 49.330193
v 95.000504 -199.330200 47.500252
v 95.000504 -200.000000 45.000500
v -97.500252 199.330200 45.000500
v -99.330193 197.500244 45.000500
v -100.000000 195.000504 45.000500
v -99.330193 195.000504 47.500252
v -97.500252 195.000504 49.330193
v -95.000504 195.000504 50.000000
v -95.000504 197.500244 49.330193
v -95.000504 199.330200 47.500252
v -95.000504 200.000000 45.000500
v 99.330193 197.500244 45.000500
v 97.500252 199.330200 45.000500
v 95.000504 200.000000 45.000500
v 95.000504 199.330200 47.500252
v 95.000504 197.500244 49.330193
v 95.000504 195.000504 50.000000
v 97.500252 195.000504 49.330193
v 99.330193 195.000504 47.500252
v 100.000000 195.000504 45.000500
v -97.500252 195.000504 -49.330193
v -99.330193 195.000504 -47.500252
v -100.000000 195.000504 -45.000500
v -99.330193 197.500244 -45.000500
v -97.500252 199.330200 -45.000500
v -95.000504 200.000000 -45.000500
v -95.000504 199.330200 -47.500252
v -95.000504 197.500244 -49.330193
v -95.000504 195.000504 -50.000000
v 99.330193 195.000504 -47.500252
v 97.500252 195.000504 -49.330193
v 95.000504 195.000504 -50.000000
v 95.000504 197.500244 -49.330193
v 95.000504 199.330200 -47.500252
v 95.000504 200.000000 -45.000500
v 97.500252 199.330200 -45.000500
v 99.330193 197.500244 -45.000500
v 100.000000 195.000504 -45.000500
v -97.500252 -199.330200 -45.000500
v -99.330193 -197.500244 -45.000500
v -100.000000 -195.000504 -45.000500
v -99.330193 -195.000504 -47.500252
v -97.500252 -195.000504 -49.330193
v -95.000504 -195.000504 -50.000000
v -95.000504 -197.500244 -49.330193
v -95.000504 -199.330200 -47.500252
v -95.000504 -200.000000 -45.000500
v 99.330193 -197.500244 -45.000500
v 97.500252 -199.330200 -45.000500
v 95.000504 -200.000000 -45.000500
v 95.000504 -199.330200 -47.500252
v 95.000504 -197.500244 -49.330193
v 95.000504 -195.000504 -50.000000
v 97.500252 -195.000504 -49.330193
v 99.330193 -195.000504 -47.500252
v 100.000000 -195.000504 -45.000500
v -98.954231 -197.160706 47.160709
v -97.160713 -198.954239 47.160709
v -97.160713 -197.160706 48.954231
v 97.160713 -198.954239 47.160709
v 98.954231 -197.160706 47.160709
v 97.160713 -197.160706 48.954231
v -97.160713 198.954239 47.160709
v -98.954231 197.160706 47.160709
v -97.160713 197.160706 48.954231
v 98.954231 197.160706 47.160709
v 97.160713 198.954239 47.160709
v 97.160713 197.160706 48.954231
v -97.160713 197.160706 -48.954231
v -98.954231 197.160706 -47.160709
v -97.160713 198.954239 -47.160709
v 98.954231 197.160706 -47.160709
v 97.160713 197.160706 -48.954231
v 97.160713 198.954239 -47.160709
v -97.160713 -198.954239 -47.160709
v -98.954231 -197.160706 -47.160709
v -97.160713 -197.160706 -48.954231
v 98.954231 -197.160706 -47.160709
v 97.160713 -198.954239 -47.160709
v 97.160713 -197.160706 -48.954231
vt 0.148361 0.004678
vt 0.148361 0.008557
vt 0.008710 0.008557
vt 0.008710 0.004678
vt 0.152240 0.008557
vt 0.151713 0.005205
vt 0.148361 0.613705
vt 0.008710 0.613705
vt 0.004831 0.008557
vt 0.005358 0.005205
vt 0.148361 0.001839
vt 0.008710 0.001839
vt 0.152240 0.613705
vt 0.151713 0.002422
vt 0.154496 0.005205
vt 0.155079 0.008557
vt 0.148361 0.617584
vt 0.008710 0.617584
vt 0.004831 0.613705
vt 0.001992 0.008557
vt 0.002575 0.005205
vt 0.005358 0.002422
vt 0.155079 0.613705
vt 0.151713 0.617057
vt 0.148361 0.620423
vt 0.008710 0.620423
vt 0.005358 0.617057
vt 0.001992 0.613705
vt 0.154496 0.617057
vt 0.151713 0.619840
vt 0.005358 0.619840
vt 0.002575 0.617057
vt 0.168719 0.008557
vt 0.168719 0.004678
vt 0.308370 0.004678
vt 0.308370 0.008557
vt 0.164840 0.008557
vt 0.165367 0.005205
vt 0.168719 0.001839
vt 0.308370 0.001839
vt 0.312249 0.008557
vt 0.311722 0.005205
vt 0.308370 0.613705
vt 0.168719 0.613705
vt 0.164840 0.613705
vt 0.162001 0.008557
vt 0.162584 0.005205
vt 0.165367 0.002422
vt 0.311722 0.002422
vt 0.312249 0.613705
vt 0.314505 0.005205
vt 0.315088 0.008557
vt 0.168719 0.617584
vt 0.308370 0.617584
vt 0.165367 0.617057
vt 0.162001 0.613705
vt 0.311722 0.617057
vt 0.315088 0.613705
vt 0.168719 0.620423
vt 0.308370 0.620423
vt 0.165367 0.619840
vt 0.162584 0.617057
vt 0.314505 0.617057
vt 0.311722 0.619840
vt 0.991290 0.917431
vt 0.991290 0.921310
vt 0.851639 0.921310
vt 0.851639 0.917431
vt 0.995169 0.917431
vt 0.994642 0.920783
vt 0.847760 0.917431
vt 0.848287 0.920783
vt 0.851639 0.622615
vt 0.991290 0.622615
vt 0.995169 0.622615
vt 0.998008 0.917431
vt 0.997425 0.920783
vt 0.847760 0.622615
vt 0.845504 0.920783
vt 0.844921 0.917431
vt 0.991290 0.618736
vt 0.851639 0.618736
vt 0.994642 0.619263
vt 0.998008 0.622615
vt 0.844921 0.622615
vt 0.848287 0.619263
vt 0.997425 0.619263
vt 0.845504 0.619263
vt 0.692417 0.921310
vt 0.692417 0.917431
vt 0.832067 0.917431
vt 0.832067 0.921310
vt 0.688538 0.917431
vt 0.689065 0.920783
vt 0.692417 0.622615
vt 0.832067 0.622615
vt 0.835946 0.917431
vt 0.835419 0.920783
vt 0.688538 0.622615
vt 0.686282 0.920783
vt 0.685698 0.917431
vt 0.692417 0.618736
vt 0.832067 0.618736
vt 0.835946 0.622615
vt 0.838786 0.917431
vt 0.838202 0.920783
vt 0.685698 0.622615
vt 0.689065 0.619263
vt 0.835419 0.619263
vt 0.838786 0.622615
vt 0.686282 0.619263
vt 0.838202 0.619263
vt 0.325694 0.005718
vt 0.325694 0.001839
vt 0.620510 0.001839
vt 0.620510 0.005718
vt 0.321815 0.005718
vt 0.322342 0.002366
vt 0.624389 0.005718
vt 0.623862 0.002366
vt 0.620510 0.610866
vt 0.325694 0.610866
vt 0.321815 0.610866
vt 0.624389 0.610866
vt 0.325694 0.614745
vt 0.620510 0.614745
vt 0.322342 0.614218
vt 0.623862 0.614218
vt 0.631699 0.005718
vt 0.635577 0.005718
vt 0.635577 0.610866
vt 0.631699 0.610866
vt 0.635577 0.001839
vt 0.632225 0.002366
vt 0.930394 0.005718
vt 0.930394 0.610866
vt 0.635577 0.614745
vt 0.632225 0.614218
vt 0.930394 0.001839
vt 0.934273 0.005718
vt 0.934273 0.610866
vt 0.930394 0.614745
vt 0.933746 0.002366
vt 0.933746 0.614218
vn -0.003456 -0.999968 0.007218
vn -0.258302 -0.966051 0.005126
vn -0.258302 -0.966051 -0.005126
vn -0.003456 -0.999968 -0.007218
vn -0.707100 -0.707093 0.005397
vn -0.866059 -0.499912 0.005447
vn -0.866059 -0.499912 -0.005447
vn -0.707100 -0.707093 -0.005397
vn -0.999973 -0.001695 0.007229
vn -0.999973 -0.001695 -0.007229
vn -0.003474 -0.001701 0.999993
vn -0.002611 -0.499961 0.866044
vn 0.002611 -0.499961 0.866044
vn 0.003474 -0.001701 0.999993
vn -0.002588 -0.707104 0.707105
vn 0.002588 -0.707104 0.707105
vn -0.002456 -0.965988 0.258576
vn 0.003456 -0.999968 0.007218
vn 0.002456 -0.965988 0.258576
vn -0.866036 -0.001279 0.499981
vn -0.866036 0.001279 0.499981
vn -0.999973 0.001695 0.007229
vn -0.499981 -0.001279 0.866035
vn -0.499981 0.001279 0.866035
vn -0.003474 0.001701 0.999993
vn 0.999973 -0.001695 0.007229
vn 0.866059 -0.499912 0.005447
vn 0.866059 -0.499912 -0.005447
vn 0.999973 -0.001695 -0.007229
vn 0.707100 -0.707093 0.005397
vn 0.707100 -0.707093 -0.005397
vn 0.258302 -0.966051 0.005126
vn 0.003456 -0.999968 -0.007218
vn 0.258302 -0.966051 -0.005126
vn 0.499981 -0.001279 0.866035
vn 0.499981 0.001279 0.866035
vn 0.003474 0.001701 0.999993
vn 0.866036 -0.001279 0.499981
vn 0.866036 0.001279 0.499981
vn 0.999973 0.001695 0.007229
vn -0.866059 0.499912 0.005447
vn -0.866059 0.499912 -0.005447
vn -0.999973 0.001695 -0.007229
vn -0.707100 0.707093 0.005397
vn -0.707100 0.707093 -0.005397
vn -0.258302 0.966051 0.005126
vn -0.003456 0.999968 0.007218
vn -0.003456 0.999968 -0.007218
vn -0.258302 0.966051 -0.005126
vn -0.002456 0.965988 0.258576
vn 0.002456 0.965988 0.258576
vn 0.003456 0.999968 0.007218
vn -0.002588 0.707104 0.707105
vn -0.002611 0.499961 0.866044
vn 0.002611 0.499961 0.866044
vn 0.002588 0.707104 0.707105
vn 0.258302 0.966051 0.005126
vn 0.258302 0.966051 -0.005126
vn 0.003456 0.999968 -0.007218
vn 0.707100 0.707093 0.005397
vn 0.866059 0.499912 0.005447
vn 0.866059 0.499912 -0.005447
vn 0.707100 0.707093 -0.005397
vn 0.999973 0.001695 -0.007229
vn -0.866036 0.001279 -0.499981
vn -0.866036 -0.001279 -0.499981
vn -0.499981 0.001279 -0.866035
vn -0.499981 -0.001279 -0.866035
vn -0.003474 0.001701 -0.999993
vn -0.003474 -0.001701 -0.999993
vn -0.002611 0.499961 -0.866044
vn 0.002611 0.499961 -0.866044
vn 0.003474 0.001701 -0.999993
vn -0.002588 0.707104 -0.707105
vn 0.002588 0.707104 -0.707105
vn -0.002456 0.965988 -0.258576
vn 0.002456 0.965988 -0.258576
vn 0.499981 0.001279 -0.866035
vn 0.499981 -0.001279 -0.866035
vn 0.003474 -0.001701 -0.999993
vn 0.866036 0.001279 -0.499981
vn 0.866036 -0.001279 -0.499981
vn -0.002456 -0.965988 -0.258576
vn 0.002456 -0.965988 -0.258576
vn -0.002588 -0.707104 -0.707105
vn -0.002611 -0.499961 -0.866044
vn 0.002611 -0.499961 -0.866044
vn 0.002588 -0.707104 -0.707105
vn -0.946104 -0.229008 0.229004
vn -0.707845 -0.499479 0.499477
vn -0.499482 -0.707842 0.499478
vn -0.229006 -0.946103 0.229009
vn -0.499480 -0.499480 0.707842
vn -0.229006 -0.229007 0.946104
vn 0.229006 -0.946103 0.229010
vn 0.499482 -0.707842 0.499478
vn 0.707845 -0.499479 0.499477
vn 0.946104 -0.229008 0.229004
vn 0.499481 -0.499479 0.707841
vn 0.229006 -0.229007 0.946104
vn -0.229006 0.946103 0.229010
vn -0.499482 0.707842 0.499478
vn -0.707845 0.499479 0.499477
vn -0.946104 0.229008 0.229004
vn -0.499481 0.499479 0.707841
vn -0.229006 0.229007 0.946104
vn 0.946104 0.229008 0.229004
vn 0.707845 0.499479 0.499477
vn 0.499482 0.707842 0.499478
vn 0.229006 0.946103 0.229009
vn 0.499480 0.499480 0.707842
vn 0.229006 0.229007 0.946104
vn -0.229006 0.229007 -0.946104
vn -0.499480 0.499480 -0.707842
vn -0.707845 0.499479 -0.499477
vn -0.946104 0.229008 -0.229004
vn -0.499482 0.707842 -0.499478
vn -0.229006 0.946103 -0.229009
vn 0.946104 0.229008 -0.229004
vn 0.707845 0.499479 -0.499477
vn 0.499481 0.499479 -0.707841
vn 0.229006 0.229007 -0.946104
vn 0.499482 0.707842 -0.499478
vn 0.229006 0.946103 -0.229010
vn -0.229006 -0.946103 -0.229010
vn -0.499482 -0.707842 -0.499478
vn -0.707845 -0.499479 -0.499477
vn -0.946104 -0.229008 -0.229004
vn -0.499481 -0.499479 -0.707841
vn -0.229006 -0.229007 -0.946104
vn 0.946104 -0.229008 -0.229004
vn 0.707845 -0.499479 -0.499477
vn 0.499482 -0.707842 -0.499478
vn 0.229006 -0.946103 -0.229009
vn 0.499480 -0.499480 -0.707842
vn 0.229006 -0.229007 -0.946104
s 1
g pCube1
usemtl lambert2SG
f 3/65/1 2/66/2 55/67/3 63/68/4
s 2
f 2/11/5 1/1/6 56/4/7 55/12/8
f 1/1/6 9/2/9 57/3/10 56/4/7
f 6/113/11 5/114/12 16/115/13 15/116/14
f 5/76/12 4/69/15 17/75/16 16/84/13
s 1
f 4/69/17 3/65/1 18/74/18 17/75/19
s 2
f 9/2/9 8/5/20 22/13/21 21/7/22
f 8/5/20 7/16/23 23/23/24 22/13/21
f 7/117/23 6/113/11 24/122/25 23/123/24
f 12/33/26 11/34/27 64/35/28 72/36/29
f 11/34/27 10/39/30 65/40/31 64/35/28
s 1
f 10/81/32 18/74/18 66/73/33 65/82/34
s 2
f 15/116/14 14/119/35 34/124/36 33/121/37
f 14/46/35 13/37/38 35/45/39 34/56/36
f 13/37/38 12/33/26 36/44/40 35/45/39
f 21/7/22 20/17/41 40/18/42 39/8/43
f 20/17/41 19/25/44 41/26/45 40/18/42
s 5
f 19/89/46 27/90/47 42/91/48 41/92/49
f 27/90/47 26/93/50 31/99/51 30/95/52
s 2
f 26/93/53 25/101/54 32/107/55 31/99/56
f 25/125/54 24/122/25 33/121/37 32/126/55
s 5
f 30/95/52 29/102/57 52/103/58 51/96/59
s 2
f 29/59/60 28/53/61 53/54/62 52/60/63
f 28/53/61 36/44/40 54/43/64 53/54/62
f 39/8/43 38/19/65 58/9/66 57/3/10
f 38/19/65 37/28/67 59/20/68 58/9/66
f 37/129/67 45/130/69 60/131/70 59/132/68
f 45/130/69 44/133/71 49/139/72 48/135/73
f 44/105/71 43/97/74 50/104/75 49/110/72
s 5
f 43/97/76 42/91/48 51/96/59 50/104/77
s 2
f 48/135/73 47/140/78 70/141/79 69/136/80
f 47/58/78 46/50/81 71/41/82 70/52/79
f 46/50/81 54/43/64 72/36/29 71/41/82
s 1
f 63/68/4 62/71/83 67/78/84 66/73/33
s 2
f 62/71/85 61/80/86 68/85/87 67/78/88
f 61/137/86 60/131/70 69/136/80 68/142/87
f 6/113/11 15/116/14 33/121/37 24/122/25
s 5
f 27/90/47 30/95/52 51/96/59 42/91/48
s 2
f 45/130/69 48/135/73 69/136/80 60/131/70
s 1
f 63/68/4 66/73/33 18/74/18 3/65/1
s 2
f 12/33/26 72/36/29 54/43/64 36/44/40
f 57/3/10 9/2/9 21/7/22 39/8/43
f 8/5/20 9/2/9 1/1/6 73/6/89
f 73/6/90 1/1/6 2/11/5 74/14/91
s 1
f 2/66/2 3/65/1 4/69/17 74/70/92
s 2
f 74/70/91 4/69/15 5/76/12 75/77/93
f 5/114/12 6/113/11 7/117/23 75/118/94
f 75/15/93 7/16/23 8/5/20 73/6/90
f 73/6/90 74/14/91 75/15/93
s 1
f 17/75/19 18/74/18 10/81/32 76/83/95
s 2
f 76/48/96 10/39/30 11/34/27 77/38/97
f 11/34/27 12/33/26 13/37/38 77/38/98
f 77/38/97 13/37/38 14/46/35 78/47/99
f 14/119/35 15/116/14 16/115/13 78/120/100
f 78/87/99 16/84/13 17/75/16 76/83/96
f 76/48/96 77/38/97 78/47/99
s 5
f 26/93/50 27/90/47 19/89/46 79/94/101
s 2
f 79/30/102 19/25/44 20/17/41 80/24/103
f 20/17/41 21/7/22 22/13/21 80/24/104
f 80/24/103 22/13/21 23/23/24 81/29/105
f 23/123/24 24/122/25 25/125/54 81/127/106
f 81/100/105 25/101/54 26/93/53 79/94/102
f 79/30/102 80/24/103 81/29/105
f 35/45/39 36/44/40 28/53/61 82/55/107
f 82/55/108 28/53/61 29/59/60 83/61/109
s 5
f 29/102/57 30/95/52 31/99/51 83/108/110
s 2
f 83/108/109 31/99/56 32/107/55 84/111/111
f 32/126/55 33/121/37 34/124/36 84/128/112
f 84/62/111 34/56/36 35/45/39 82/55/108
f 82/55/108 83/61/109 84/62/111
f 44/133/71 45/130/69 37/129/67 85/134/113
f 85/32/114 37/28/67 38/19/65 86/27/115
f 38/19/65 39/8/43 40/18/42 86/27/116
f 86/27/115 40/18/42 41/26/45 87/31/117
s 5
f 41/92/49 42/91/48 43/97/76 87/98/118
s 2
f 87/98/117 43/97/74 44/105/71 85/106/114
f 85/32/114 86/27/115 87/31/117
f 53/54/62 54/43/64 46/50/81 88/57/119
f 88/57/120 46/50/81 47/58/78 89/63/121
f 47/140/78 48/135/73 49/139/72 89/143/122
f 89/112/121 49/110/72 50/104/75 90/109/123
s 5
f 50/104/77 51/96/59 52/103/58 90/109/124
s 2
f 90/64/123 52/60/63 53/54/62 88/57/120
f 88/57/120 89/63/121 90/64/123
s 1
f 62/71/83 63/68/4 55/67/3 91/72/125
s 2
f 91/22/126 55/12/8 56/4/7 92/10/127
f 56/4/7 57/3/10 58/9/66 92/10/128
f 92/10/127 58/9/66 59/20/68 93/21/129
f 59/132/68 60/131/70 61/137/86 93/138/130
f 93/79/129 61/80/86 62/71/85 91/72/126
f 91/22/126 92/10/127 93/21/129
f 71/41/82 72/36/29 64/35/28 94/42/131
f 94/42/132 64/35/28 65/40/31 95/49/133
s 1
f 65/82/34 66/73/33 67/78/84 95/86/134
s 2
f 95/86/133 67/78/88 68/85/87 96/88/135
f 68/142/87 69/136/80 70/141/79 96/144/136
f 96/51/135 70/52/79 71/41/82 94/42/132
f 94/42/132 95/49/133 96/51/135
