# This file uses centimeters as units for non-parametric coordinates.

mtllib medieval_sconce_mcv.mtl
g default
v -7.132926 -11.797319 2.317628
v -6.067629 -11.797319 4.408390
v -4.408390 -11.797319 6.067628
v -2.317628 -11.797319 7.132925
v -0.000000 -11.797319 7.500001
v 2.317627 -11.797319 7.132925
v 4.408389 -11.797319 6.067628
v 6.067627 -11.797319 4.408390
v 7.132924 -11.797319 2.317627
v -8.064596 -1.645928 2.620346
v -6.860155 -1.645928 4.984194
v -4.984194 -1.645928 6.860154
v -2.620346 -1.645928 8.064595
v -0.000000 -1.645928 8.479617
v 2.620345 -1.645928 8.064594
v 4.984193 -1.645928 6.860154
v 6.860153 -1.645928 4.984193
v 8.064594 -1.645928 2.620345
v -1.076557 10.000001 0.349794
v -0.915774 10.000001 0.665348
v -0.665349 10.000001 0.915773
v -0.349795 10.000001 1.076555
v -0.000000 10.000001 1.131958
v 0.349794 10.000001 1.076555
v 0.665348 10.000001 0.915773
v 0.915773 10.000001 0.665348
v 1.076556 10.000001 0.349794
v -0.000000 10.000001 -0.000001
v -0.000001 -1.645928 -0.000000
v 4.270853 -1.645928 -0.000000
v 0.594621 10.000001 -0.000001
v -4.270854 -1.645928 -0.000000
v -0.594622 10.000001 -0.000001
v -14.759439 -11.530373 0.152476
v -14.633237 -11.512921 0.040722
v -14.450809 -11.497349 -0.000000
v -14.559580 -11.649456 0.041603
v -14.632653 -11.760241 0.152952
v -14.648784 -11.797319 0.299970
v -14.757937 -11.757194 0.299058
v -14.814066 -11.656234 0.298012
v -14.790213 -11.544021 0.297341
v -13.977007 -11.797319 4.541405
v -14.080611 -11.757190 4.575068
v -14.133859 -11.656253 4.592369
v -14.111118 -11.544021 4.584980
v -11.889552 -11.797319 8.638265
v -11.977683 -11.757190 8.702295
v -12.022978 -11.656253 8.735204
v -12.003633 -11.544021 8.721149
v -8.638265 -11.797319 11.889551
v -8.702295 -11.757190 11.977682
v -8.735204 -11.656253 12.022977
v -8.721149 -11.544021 12.003633
v -4.541405 -11.797319 13.977006
v -4.575068 -11.757190 14.080610
v -4.592369 -11.656253 14.133857
v -4.584980 -11.544021 14.111116
v -0.000000 -11.797319 14.696293
v -0.000000 -11.757190 14.805228
v -0.000000 -11.656253 14.861216
v -0.000000 -11.544021 14.837305
v 4.541403 -11.797319 13.977005
v 4.575066 -11.757190 14.080609
v 4.592367 -11.656253 14.133856
v 4.584979 -11.544021 14.111115
v 8.638263 -11.797319 11.889550
v 8.702293 -11.757190 11.977681
v 8.735202 -11.656253 12.022976
v 8.721148 -11.544021 12.003632
v 11.889549 -11.797319 8.638264
v 11.977680 -11.757190 8.702294
v 12.022975 -11.656253 8.735203
v 12.003631 -11.544021 8.721148
v 13.977003 -11.797319 4.541404
v 14.080607 -11.757190 4.575067
v 14.133855 -11.656253 4.592368
v 14.111115 -11.544021 4.584979
v 14.633234 -11.512921 0.040722
v 14.759435 -11.530373 0.152476
v 14.790209 -11.544021 0.297341
v 14.814062 -11.656234 0.298014
v 14.757934 -11.757194 0.299060
v 14.648780 -11.797319 0.299970
v 14.632648 -11.760242 0.152952
v 14.559575 -11.649457 0.041603
v 14.450807 -11.497349 -0.000000
v -7.451649 -11.797319 0.305291
v -7.462943 -11.757390 0.153789
v -7.446248 -11.648939 0.041385
v -7.406305 -11.502766 -0.000000
v 7.451647 -11.797319 0.305291
v 7.462941 -11.757390 0.153789
v 7.446246 -11.648939 0.041385
v 7.406303 -11.502766 -0.000000
v -8.428788 -1.645928 0.320938
v -8.408212 -1.645928 0.164644
v -8.305831 -1.645928 0.044772
v -8.154680 -1.645928 -0.000000
v 8.428849 -1.645928 0.320542
v 8.408298 -1.645928 0.164442
v 8.306044 -1.645928 0.044717
v 8.155079 -1.645928 -0.000000
v -1.086778 10.000001 0.227001
v -1.073422 10.000001 0.145799
v -0.995156 10.000001 0.059829
v -0.876394 10.000001 -0.000001
v 1.088624 10.000001 0.215340
v 1.077172 10.000001 0.139794
v 1.005627 10.000001 0.058230
v 0.896466 10.000001 -0.000001
v -0.000000 -11.797319 0.299970
v -0.000000 -11.757130 0.149985
v -0.000000 -11.647335 0.040188
v -0.000000 -11.497349 -0.000000
v -0.000000 11.440629 0.229325
v 0.000000 11.491221 0.166756
v 0.000000 11.531771 0.058465
v 0.000000 11.507340 -0.000000
v -14.794517 -11.634856 0.173216
v -14.685879 -11.632430 0.064281
v -14.738790 -11.736234 0.172704
v 14.685874 -11.632430 0.064281
v 14.794512 -11.634856 0.173217
v 14.738785 -11.736234 0.172705
vt 0.645884 0.620557
vt 0.645730 0.619070
vt 0.735193 0.619071
vt 0.735207 0.620557
vt 0.559716 0.620557
vt 0.559424 0.619070
vt 0.646091 0.617733
vt 0.735171 0.617733
vt 0.738225 0.620737
vt 0.737793 0.619354
vt 0.734724 0.751648
vt 0.686813 0.751648
vt 0.491333 0.620557
vt 0.490930 0.619070
vt 0.560109 0.617733
vt 0.637567 0.751648
vt 0.737804 0.618011
vt 0.737976 0.751648
vt 0.740062 0.619386
vt 0.740553 0.620969
vt 0.736915 0.905889
vt 0.734114 0.905889
vt 0.491874 0.617733
vt 0.598486 0.751648
vt 0.727540 0.905889
vt 0.740470 0.751648
vt 0.738489 0.905889
vt 0.736624 0.924969
vt 0.722323 0.905889
vt 0.740188 0.905889
vt 0.737927 0.925639
vt 0.740184 0.926176
vt 0.741402 0.905889
vt 0.741402 0.925852
vt 0.753731 0.372619
vt 0.753745 0.371133
vt 0.843208 0.371133
vt 0.843054 0.372619
vt 0.750713 0.372800
vt 0.751145 0.371416
vt 0.753767 0.369796
vt 0.842848 0.369796
vt 0.929515 0.371133
vt 0.929222 0.372619
vt 0.802126 0.503711
vt 0.754223 0.503711
vt 0.750967 0.503711
vt 0.748385 0.373031
vt 0.748876 0.371448
vt 0.751135 0.370074
vt 0.928829 0.369796
vt 0.998008 0.371133
vt 0.997605 0.372619
vt 0.851371 0.503711
vt 0.754824 0.657951
vt 0.752266 0.657951
vt 0.750574 0.657951
vt 0.748470 0.503711
vt 0.997064 0.369796
vt 0.890452 0.503711
vt 0.761398 0.657951
vt 0.752314 0.677031
vt 0.751011 0.677701
vt 0.748783 0.657951
vt 0.766615 0.657951
vt 0.748755 0.678238
vt 0.747537 0.657951
vt 0.747537 0.677915
vt 0.007404 0.614470
vt 0.004341 0.614134
vt 0.004359 0.464770
vt 0.007515 0.464534
vt 0.007385 0.616744
vt 0.004753 0.616345
vt 0.002022 0.612612
vt 0.002017 0.464422
vt 0.004279 0.309296
vt 0.007404 0.309296
vt 0.049437 0.457895
vt 0.095765 0.600475
vt 0.096466 0.602634
vt 0.002494 0.615243
vt 0.001992 0.309296
vt 0.004359 0.153823
vt 0.007515 0.154058
vt 0.092994 0.435702
vt 0.181113 0.556988
vt 0.182447 0.558824
vt 0.002017 0.154171
vt 0.004341 0.004459
vt 0.007404 0.004123
vt 0.049437 0.160698
vt 0.092994 0.182891
vt 0.127560 0.401135
vt 0.149753 0.357579
vt 0.248846 0.489255
vt 0.250682 0.490589
vt 0.002022 0.005981
vt 0.007385 0.001849
vt 0.004753 0.002248
vt 0.095765 0.018118
vt 0.181113 0.061605
vt 0.127560 0.217458
vt 0.149753 0.261014
vt 0.157400 0.309296
vt 0.292334 0.403906
vt 0.294492 0.404607
vt 0.002494 0.003350
vt 0.096466 0.015959
vt 0.182447 0.059769
vt 0.248846 0.129338
vt 0.292334 0.214687
vt 0.307318 0.309296
vt 0.309588 0.309296
vt 0.251626 0.491274
vt 0.295601 0.404968
vt 0.250682 0.128004
vt 0.294492 0.213985
vt 0.310754 0.309296
vt 0.295601 0.213625
vt 0.251626 0.127318
vt 0.337881 0.307795
vt 0.492121 0.307795
vt 0.492121 0.396769
vt 0.337881 0.320183
vt 0.337881 0.295408
vt 0.492121 0.218822
vt 0.622666 0.462089
vt 0.622595 0.307795
vt 0.492121 0.477679
vt 0.337881 0.326053
vt 0.317917 0.307795
vt 0.492121 0.137903
vt 0.337881 0.289120
vt 0.622666 0.153502
vt 0.622595 0.608845
vt 0.624602 0.462921
vt 0.624581 0.307795
vt 0.492121 0.480828
vt 0.337881 0.328527
vt 0.622595 0.006746
vt 0.492121 0.134758
vt 0.337881 0.286845
vt 0.624602 0.152670
vt 0.622801 0.612645
vt 0.624609 0.611111
vt 0.622801 0.002945
vt 0.624609 0.004480
vt 0.624384 0.613742
vt 0.624384 0.001849
vt 0.633185 0.365512
vt 0.631699 0.365805
vt 0.631699 0.279498
vt 0.633185 0.279344
vt 0.631699 0.183827
vt 0.633185 0.183827
vt 0.764277 0.238416
vt 0.764277 0.287661
vt 0.631699 0.088155
vt 0.633185 0.088309
vt 0.764277 0.183827
vt 0.918517 0.191114
vt 0.918517 0.197688
vt 0.631699 0.001849
vt 0.633185 0.002141
vt 0.764277 0.129238
vt 0.918517 0.183827
vt 0.937597 0.183827
vt 0.918517 0.202905
vt 0.764277 0.079992
vt 0.918517 0.176539
vt 0.918517 0.169966
vt 0.918517 0.164749
vn -0.798932 0.538536 0.267743
vn -0.681740 0.538419 0.495313
vn -0.683118 0.534619 0.497526
vn -0.800218 0.534769 0.271427
vn -0.495313 0.538419 0.681740
vn -0.496974 0.533972 0.684026
vn -0.260401 0.538419 0.801434
vn -0.261453 0.534227 0.803893
vn 0.000000 0.538419 0.842677
vn 0.000000 0.533532 0.845780
vn 0.260402 0.538419 0.801434
vn 0.261453 0.534227 0.803893
vn 0.495313 0.538419 0.681740
vn 0.496974 0.533972 0.684026
vn 0.681740 0.538419 0.495313
vn 0.683156 0.534645 0.497446
vn 0.798964 0.538533 0.267655
vn 0.800265 0.534804 0.271221
vn -0.000000 -0.000000 -1.000000
vn -0.000000 -0.000000 -1.000000
vn -0.000000 -0.000000 -1.000000
vn -0.000000 -0.000000 -1.000000
vn 0.000000 -0.000000 -1.000000
vn 0.000000 -0.000000 -1.000000
vn -0.008863 -0.999904 -0.010644
vn -0.004991 -0.896422 -0.443174
vn 0.000063 -0.869645 -0.493678
vn 0.000004 -0.999903 -0.013916
vn -0.001677 -0.713789 -0.700359
vn 0.000009 -0.713826 -0.700323
vn -0.011484 -0.259724 -0.965614
vn -0.020795 -0.001105 -0.999783
vn -0.000000 -0.005327 -0.999986
vn -0.000047 -0.267043 -0.963685
vn 0.800838 0.536328 0.266479
vn 0.928540 0.208472 0.307170
vn 0.967417 0.207468 0.145126
vn 0.837645 0.532354 0.122272
vn 0.830268 -0.484988 0.274668
vn 0.830267 -0.484987 0.274669
vn 0.867374 -0.480922 0.127974
vn 0.867522 -0.481001 0.126660
vn 0.328113 -0.938379 0.108569
vn 0.008470 -0.999960 0.002803
vn 0.008863 -0.999904 -0.010643
vn 0.343934 -0.937890 0.045521
vn 0.836198 0.535519 -0.118286
vn 0.838022 0.532919 -0.117115
vn 0.836764 0.534732 0.117848
vn 0.661567 0.418010 -0.622573
vn 0.660515 0.423175 -0.620196
vn 0.675566 0.427545 -0.600679
vn 0.668468 0.426073 -0.609600
vn 0.250492 0.151482 -0.956194
vn 0.020781 -0.001115 -0.999784
vn 0.011435 0.007198 -0.999909
vn 0.280694 0.178538 -0.943045
vn 0.000000 -1.000000 -0.000000
vn -0.008470 -0.999960 0.002803
vn 0.000000 -1.000000 -0.000000
vn -0.007136 -0.999961 0.005184
vn 0.000000 -1.000000 0.000000
vn -0.005184 -0.999961 0.007136
vn 0.000000 -1.000000 0.000000
vn -0.002726 -0.999961 0.008388
vn 0.000000 -1.000000 0.000000
vn 0.000000 -0.999961 0.008820
vn 0.000000 -1.000000 0.000000
vn 0.002726 -0.999961 0.008388
vn 0.000000 -1.000000 0.000000
vn 0.005184 -0.999961 0.007136
vn 0.000000 -1.000000 0.000000
vn 0.007136 -0.999961 0.005184
vn 0.000000 -1.000000 0.000000
vn -0.000004 -0.999903 -0.013915
vn -0.837645 0.532355 0.122265
vn -0.800836 0.536328 0.266483
vn -0.836786 0.534758 0.117575
vn -0.682791 0.536380 0.496077
vn -0.496077 0.536380 0.682791
vn -0.260803 0.536380 0.802669
vn 0.000000 0.536380 0.843977
vn 0.260803 0.536380 0.802669
vn 0.496077 0.536380 0.682791
vn 0.682791 0.536380 0.496077
vn -0.839306 0.532252 0.110781
vn 0.839202 0.532178 0.111926
vn 0.000000 -0.999856 -0.016969
vn -0.585372 0.574318 0.572275
vn 0.000000 0.530946 0.847405
vn 0.589069 0.575407 0.567366
vn -0.001720 0.143751 -0.989613
vn -0.012583 0.007860 -0.999890
vn -0.000000 -0.005163 -0.999987
vn 0.012458 0.007803 -0.999892
vn 0.000000 -0.005327 -0.999986
vn -0.011588 0.007307 -0.999906
vn -0.967417 0.207468 0.145126
vn -0.928539 0.208476 0.307171
vn -0.867523 -0.481001 0.126660
vn -0.867374 -0.480922 0.127974
vn -0.830266 -0.484990 0.274669
vn -0.830266 -0.484990 0.274668
vn -0.343936 -0.937889 0.045521
vn -0.328114 -0.938378 0.108569
vn -0.791259 0.208371 0.574884
vn -0.707470 -0.485061 0.514006
vn -0.707470 -0.485061 0.514006
vn -0.279647 -0.938359 0.203176
vn -0.574883 0.208370 0.791260
vn -0.514008 -0.485056 0.707471
vn -0.514008 -0.485057 0.707472
vn -0.203175 -0.938358 0.279651
vn -0.302234 0.208370 0.930181
vn -0.270231 -0.485054 0.831684
vn -0.270231 -0.485054 0.831683
vn -0.106815 -0.938357 0.328749
vn 0.000000 0.208371 0.978050
vn 0.000000 -0.485056 0.874483
vn 0.000000 -0.485056 0.874483
vn 0.000000 -0.938358 0.345665
vn 0.302234 0.208371 0.930181
vn 0.270230 -0.485054 0.831684
vn 0.270231 -0.485054 0.831684
vn 0.106816 -0.938358 0.328747
vn 0.574883 0.208371 0.791259
vn 0.514007 -0.485057 0.707472
vn 0.514006 -0.485057 0.707472
vn 0.203175 -0.938358 0.279648
vn 0.791260 0.208367 0.574883
vn 0.707471 -0.485058 0.514008
vn 0.707471 -0.485058 0.514007
vn 0.279647 -0.938359 0.203176
vn -0.000000 -0.265556 -0.964095
vn 0.000000 -0.868863 -0.495053
vn 0.000000 -0.713421 -0.700736
vn 0.011484 -0.259726 -0.965614
vn 0.000047 -0.267043 -0.963685
vn 0.001677 -0.713786 -0.700362
vn 0.004991 -0.896424 -0.443170
vn -0.000063 -0.869646 -0.493676
vn -0.000010 -0.713825 -0.700324
vn -0.250508 0.151507 -0.956186
vn -0.279650 0.178011 -0.943455
vn -0.660523 0.423200 -0.620171
vn -0.661574 0.418037 -0.622547
vn -0.667148 0.425401 -0.611513
vn -0.673003 0.426266 -0.604454
vn -0.836194 0.535528 -0.118278
vn -0.837793 0.532843 -0.119084
vn 0.368204 0.230681 -0.900673
vn 0.777767 0.493341 -0.389478
vn 0.713801 0.456613 -0.531029
vn -0.504928 0.319999 -0.801653
vn -0.774802 0.491802 -0.397257
vn 0.628797 0.393598 -0.670593
vn 0.814703 0.575743 -0.069128
vn 0.796385 0.586224 0.148700
vn 0.808425 0.558661 -0.185328
vn -0.749436 0.494139 -0.440649
vn -0.814622 0.572892 -0.090468
vn -0.798476 0.587269 0.132478
vn -0.958072 0.246042 -0.146837
vn -0.819813 -0.257773 -0.511331
vn -0.527724 -0.277089 -0.802950
vn -0.200357 -0.114366 -0.973025
vn -0.636282 -0.542399 -0.548588
vn -0.296325 -0.925779 -0.234785
vn 0.200357 -0.114372 -0.973024
vn 0.527724 -0.277105 -0.802945
vn 0.819811 -0.257780 -0.511332
vn 0.958074 0.246032 -0.146840
vn 0.636285 -0.542396 -0.548588
vn 0.296331 -0.925777 -0.234787
s 1
g pCone2
usemtl texturedFacets6
f 10/45/1 11/54/2 20/61/3 19/55/4
f 11/54/2 12/60/5 21/65/6 20/61/3
f 12/158/5 13/157/7 22/162/8 21/163/6
f 13/157/7 14/161/9 23/167/10 22/162/8
f 14/161/9 15/166/11 24/171/12 23/167/10
f 15/166/11 16/170/13 25/172/14 24/171/12
f 16/24/13 17/16/15 26/25/16 25/29/14
f 17/16/15 18/12/17 27/22/18 26/25/16
f 28/122/19 29/123/20 32/124/21 33/125/22
f 31/126/23 30/127/24 29/123/20 28/122/19
f 39/69/25 38/70/26 89/71/27 88/72/28
f 38/70/26 37/75/29 90/76/30 89/71/27
f 37/146/31 36/136/32 91/128/33 90/137/34
f 78/1/35 77/2/36 82/3/37 81/4/38
f 77/2/39 76/7/40 83/8/41 82/3/42
f 76/109/43 75/101/44 84/91/45 83/99/46
f 81/4/38 80/9/47 101/18/48 100/11/49
f 80/9/50 79/20/51 102/26/52 101/18/53
f 79/147/54 87/141/55 103/133/56 102/142/57
f 88/72/28 1/79/58 43/80/59 39/69/25
f 1/79/58 2/86/60 47/87/61 43/80/59
f 2/86/60 3/94/62 51/96/63 47/87/61
f 3/94/62 4/95/64 55/106/65 51/96/63
f 4/95/64 5/105/66 59/113/67 55/106/65
f 5/105/66 6/104/68 63/112/69 59/113/67
f 6/104/68 7/103/70 67/111/71 63/112/69
f 7/103/70 8/93/72 71/102/73 67/111/71
f 8/93/72 9/92/74 75/101/44 71/102/73
f 9/92/74 92/85/75 84/91/45 75/101/44
f 42/35/76 46/38/77 10/45/1 96/46/78
f 46/38/77 50/44/79 11/54/2 10/45/1
f 50/44/79 54/53/80 12/60/5 11/54/2
f 54/151/80 58/154/81 13/157/7 12/158/5
f 58/154/81 62/156/82 14/161/9 13/157/7
f 62/156/82 66/160/83 15/166/11 14/161/9
f 66/160/83 70/165/84 16/170/13 15/166/11
f 70/13/84 74/5/85 17/16/15 16/24/13
f 74/5/85 78/1/35 18/12/17 17/16/15
f 78/1/35 81/4/38 100/11/49 18/12/17
f 96/46/78 10/45/1 19/55/4 104/56/86
f 18/12/17 100/11/49 108/21/87 27/22/18
f 1/79/58 88/72/28 112/78/88 2/86/60
f 3/94/62 2/86/60 112/78/88 4/95/64
f 5/105/66 4/95/64 112/78/88 6/104/68
f 7/103/70 6/104/68 112/78/88 8/93/72
f 9/92/74 8/93/72 112/78/88 92/85/75
f 116/62/89 104/56/86 19/55/4 20/61/3
f 116/168/89 20/169/3 21/163/6 22/162/8
f 116/168/90 22/162/8 23/167/10 24/171/12
f 116/168/91 24/171/12 25/172/14 26/173/16
f 116/28/91 26/25/16 27/22/18 108/21/87
f 119/132/92 28/122/19 33/125/22 107/131/93
f 91/128/33 32/124/21 29/123/20 115/129/94
f 111/134/95 31/126/23 28/122/19 119/132/92
f 103/133/56 30/127/24 31/126/23 111/134/95
f 95/135/96 30/127/24 103/133/56 87/141/55
f 115/129/94 29/123/20 30/127/24 95/135/96
f 36/136/32 99/130/97 32/124/21 91/128/33
f 33/125/22 32/124/21 99/130/97 107/131/93
f 42/35/76 41/36/98 45/37/99 46/38/77
f 41/36/100 40/41/101 44/42/102 45/37/103
f 40/73/104 39/69/25 43/80/59 44/81/105
f 46/38/77 45/37/99 49/43/106 50/44/79
f 45/37/103 44/42/102 48/51/107 49/43/108
f 44/81/105 43/80/59 47/87/61 48/88/109
f 50/44/79 49/43/106 53/52/110 54/53/80
f 49/43/108 48/51/107 52/59/111 53/52/112
f 48/88/109 47/87/61 51/96/63 52/97/113
f 54/151/80 53/152/110 57/153/114 58/154/81
f 53/115/112 52/97/111 56/107/115 57/116/116
f 52/97/113 51/96/63 55/106/65 56/107/117
f 58/154/81 57/153/114 61/155/118 62/156/82
f 57/116/116 56/107/115 60/114/119 61/119/120
f 56/107/117 55/106/65 59/113/67 60/114/121
f 62/156/82 61/155/118 65/159/122 66/160/83
f 61/119/120 60/114/119 64/118/123 65/120/124
f 60/114/121 59/113/67 63/112/69 64/118/125
f 66/160/83 65/159/122 69/164/126 70/165/84
f 65/120/124 64/118/123 68/117/127 69/121/128
f 64/118/125 63/112/69 67/111/71 68/117/129
f 70/13/84 69/14/126 73/6/130 74/5/85
f 69/14/128 68/23/127 72/15/131 73/6/132
f 68/117/129 67/111/71 71/102/73 72/110/133
f 74/5/85 73/6/130 77/2/36 78/1/35
f 73/6/132 72/15/131 76/7/40 77/2/39
f 72/110/133 71/102/73 75/101/44 76/109/43
f 90/137/34 91/128/33 115/129/94 114/138/134
f 88/72/28 89/71/27 113/77/135 112/78/88
f 89/71/27 90/76/30 114/83/136 113/77/135
f 87/141/55 86/148/137 94/144/138 95/135/96
f 86/98/139 85/90/140 93/84/141 94/89/142
f 85/90/140 84/91/45 92/85/75 93/84/141
f 36/136/32 35/145/143 98/139/144 99/130/97
f 35/48/145 34/39/146 97/47/147 98/58/148
f 34/39/149 42/35/76 96/46/78 97/47/150
f 102/142/57 103/133/56 111/134/95 110/143/151
f 100/11/49 101/18/48 109/27/152 108/21/87
f 101/18/53 102/26/52 110/30/153 109/27/152
f 99/130/97 98/139/144 106/140/154 107/131/93
f 98/58/148 97/47/147 105/57/155 106/64/154
f 97/47/150 96/46/78 104/56/86 105/57/155
f 110/30/151 111/33/95 119/34/92 118/32/156
f 108/21/87 109/27/152 117/31/157 116/28/158
f 109/27/152 110/30/153 118/32/159 117/31/157
f 95/135/96 94/144/138 114/138/134 115/129/94
f 94/89/142 93/84/141 113/77/135 114/83/136
f 93/84/141 92/85/75 112/78/88 113/77/135
f 107/67/93 106/64/154 118/66/160 119/68/92
f 106/64/154 105/57/155 117/63/161 118/66/160
f 105/57/155 104/56/86 116/62/162 117/63/161
f 41/36/98 42/35/76 34/39/149 120/40/163
f 120/40/164 34/39/146 35/48/145 121/49/165
f 35/145/143 36/136/32 37/146/31 121/149/166
f 121/82/165 37/75/29 38/70/26 122/74/167
f 38/70/26 39/69/25 40/73/104 122/74/168
f 122/50/167 40/41/101 41/36/100 120/40/164
f 120/40/164 121/49/165 122/50/167
f 86/148/137 87/141/55 79/147/54 123/150/169
f 123/19/170 79/20/51 80/9/50 124/10/171
f 80/9/47 81/4/38 82/3/37 124/10/172
f 124/10/171 82/3/42 83/8/41 125/17/173
f 83/99/46 84/91/45 85/90/140 125/100/174
f 125/100/173 85/90/140 86/98/139 123/108/170
f 123/19/170 124/10/171 125/17/173
