# This file uses centimeters as units for non-parametric coordinates.

mtllib Wood_Block_Arch.mtl
g default
v 42.248260 10.878822 -13.727291
v 35.938518 10.878822 -26.110860
v 26.110860 10.878822 -35.938514
v 13.727290 10.878822 -42.248256
v 0.000000 10.878822 -44.422441
v -13.727290 10.878822 -42.248251
v -26.110854 10.878822 -35.938505
v -35.938505 10.878822 -26.110851
v -42.248243 10.878822 -13.727286
v -44.422428 10.878822 0.000000
v 44.422420 10.878822 0.000000
v 42.248260 -10.878826 -13.727291
v 35.938518 -10.878826 -26.110860
v 26.110860 -10.878826 -35.938514
v 13.727290 -10.878826 -42.248256
v 0.000000 -10.878826 -44.422441
v -13.727290 -10.878826 -42.248251
v -26.110854 -10.878826 -35.938505
v -35.938505 -10.878826 -26.110851
v -42.248243 -10.878826 -13.727286
v -44.422428 -10.878826 0.000000
v 44.422420 -10.878826 0.000000
v 17.486344 10.878732 -5.681656
v 14.874768 10.878732 -10.807138
v 10.807136 10.878732 -14.874779
v 5.681653 10.878732 -17.486356
v -0.000002 10.878732 -18.386253
v -5.681654 10.878732 -17.486356
v -10.807133 10.878732 -14.874774
v -14.874774 10.878732 -10.807132
v -17.486352 10.878732 -5.681652
v -18.386249 10.878732 -0.000005
v 18.386240 10.878732 -0.000005
v 17.486344 -10.878734 -5.681656
v 14.874768 -10.878734 -10.807138
v 10.807136 -10.878734 -14.874779
v 5.681653 -10.878734 -17.486356
v -0.000002 -10.878734 -18.386253
v -5.681654 -10.878734 -17.486356
v -10.807133 -10.878734 -14.874774
v -14.874774 -10.878734 -10.807132
v -17.486352 -10.878734 -5.681652
v -18.386249 -10.878734 -0.000005
v 18.386240 -10.878734 -0.000005
vt 0.905122 0.454624
vt 0.905122 0.544236
vt 0.747674 0.544236
vt 0.747674 0.454624
vt 0.905122 0.643572
vt 0.747674 0.643572
vt 0.905122 0.383506
vt 0.747674 0.383506
vt 0.742109 0.747867
vt 0.742109 0.837480
vt 0.584662 0.837480
vt 0.584662 0.747867
vt 0.742109 0.908597
vt 0.584662 0.908597
vt 0.742109 0.648531
vt 0.584662 0.648531
vt 0.488747 0.894994
vt 0.488703 0.932085
vt 0.331258 0.931898
vt 0.331302 0.894807
vt 0.488654 0.973199
vt 0.331209 0.973012
vt 0.488782 0.865559
vt 0.331337 0.865372
vt 0.188923 0.673367
vt 0.188960 0.714482
vt 0.031515 0.714623
vt 0.031478 0.673507
vt 0.188993 0.751572
vt 0.031548 0.751713
vt 0.189020 0.781007
vt 0.031574 0.781148
vt 0.101142 0.017730
vt 0.190754 0.063389
vt 0.080012 0.215815
vt 0.042921 0.196918
vt 0.261873 0.134508
vt 0.109447 0.245250
vt 0.001807 0.001995
vt 0.001807 0.190403
vt 0.307532 0.224120
vt 0.128344 0.282341
vt 0.323264 0.323455
vt 0.134856 0.323455
vt 0.307532 0.422791
vt 0.128344 0.364569
vt 0.261873 0.512403
vt 0.109447 0.401661
vt 0.190754 0.583521
vt 0.080012 0.431095
vt 0.101142 0.629181
vt 0.042921 0.449992
vt 0.001807 0.644913
vt 0.001807 0.456505
vt 0.461493 0.063387
vt 0.551106 0.017727
vt 0.609327 0.196914
vt 0.572237 0.215812
vt 0.650442 0.001993
vt 0.650442 0.190402
vt 0.390376 0.134504
vt 0.542802 0.245247
vt 0.344716 0.224117
vt 0.523904 0.282339
vt 0.328983 0.323453
vt 0.517391 0.323453
vt 0.344716 0.422788
vt 0.523904 0.364567
vt 0.390376 0.512401
vt 0.542802 0.401658
vt 0.461493 0.583518
vt 0.572237 0.431093
vt 0.551106 0.629178
vt 0.609328 0.449991
vt 0.650442 0.644911
vt 0.650442 0.456502
vt 0.657750 0.091601
vt 0.657750 0.001992
vt 0.815201 0.001992
vt 0.815201 0.091601
vt 0.657750 0.190940
vt 0.815201 0.190940
vt 0.657750 0.290278
vt 0.815201 0.290278
vt 0.657750 0.379887
vt 0.815201 0.379887
vt 0.158851 0.810236
vt 0.158796 0.847327
vt 0.001351 0.847091
vt 0.001406 0.810000
vt 0.158734 0.888441
vt 0.001289 0.888205
vt 0.158673 0.929555
vt 0.001227 0.929319
vt 0.158617 0.966645
vt 0.001172 0.966409
vt 0.421651 0.836939
vt 0.421652 0.648531
vt 0.579097 0.648531
vt 0.579098 0.836939
vt 0.258638 0.648534
vt 0.416086 0.648534
vt 0.416085 0.836943
vt 0.258640 0.836943
vn 0.809017 0.000000 -0.587785
vn 0.951057 0.000000 -0.309016
vn 0.951057 0.000000 -0.309016
vn 0.809017 0.000000 -0.587785
vn 0.587785 0.000000 -0.809017
vn 0.587785 0.000000 -0.809017
vn 0.309017 0.000000 -0.951057
vn 0.309017 0.000000 -0.951057
vn -0.000000 0.000000 -1.000000
vn -0.000000 0.000000 -1.000000
vn -0.309017 0.000000 -0.951056
vn -0.309017 0.000000 -0.951056
vn -0.587785 0.000000 -0.809017
vn -0.587785 0.000000 -0.809017
vn -0.809017 0.000000 -0.587785
vn -0.809017 0.000000 -0.587785
vn -0.951057 0.000000 -0.309017
vn -0.951057 0.000000 -0.309017
vn -0.987688 0.000000 -0.156434
vn -0.987688 0.000000 -0.156434
vn 0.987689 0.000000 -0.156432
vn 0.987689 0.000000 -0.156432
vn -0.000003 1.000000 0.000002
vn -0.000003 1.000000 0.000002
vn -0.000003 1.000000 0.000002
vn -0.000003 1.000000 0.000002
vn -0.000002 1.000000 0.000002
vn -0.000002 1.000000 0.000002
vn -0.000002 1.000000 0.000002
vn -0.000002 1.000000 0.000002
vn -0.000002 1.000000 0.000003
vn -0.000002 1.000000 0.000003
vn -0.000002 1.000000 0.000003
vn -0.000002 1.000000 0.000003
vn -0.000001 1.000000 0.000003
vn -0.000001 1.000000 0.000003
vn -0.000001 1.000000 0.000003
vn -0.000001 1.000000 0.000003
vn 0.000001 1.000000 0.000003
vn 0.000001 1.000000 0.000003
vn 0.000001 1.000000 0.000003
vn 0.000001 1.000000 0.000003
vn 0.000002 1.000000 0.000003
vn 0.000002 1.000000 0.000003
vn 0.000002 1.000000 0.000003
vn 0.000002 1.000000 0.000003
vn 0.000002 1.000000 0.000002
vn 0.000002 1.000000 0.000002
vn 0.000002 1.000000 0.000002
vn 0.000002 1.000000 0.000002
vn 0.000003 1.000000 0.000001
vn 0.000003 1.000000 0.000001
vn 0.000003 1.000000 0.000001
vn 0.000003 1.000000 0.000001
vn 0.000003 1.000000 0.000001
vn 0.000003 1.000000 0.000001
vn 0.000003 1.000000 0.000001
vn 0.000003 1.000000 0.000001
vn -0.000003 1.000000 0.000001
vn -0.000003 1.000000 0.000001
vn -0.000003 1.000000 0.000001
vn -0.000003 1.000000 0.000001
vn -0.000003 -1.000000 0.000002
vn -0.000003 -1.000000 0.000002
vn -0.000003 -1.000000 0.000002
vn -0.000003 -1.000000 0.000002
vn -0.000003 -1.000000 0.000003
vn -0.000003 -1.000000 0.000003
vn -0.000003 -1.000000 0.000003
vn -0.000003 -1.000000 0.000003
vn -0.000002 -1.000000 0.000003
vn -0.000002 -1.000000 0.000003
vn -0.000002 -1.000000 0.000003
vn -0.000002 -1.000000 0.000003
vn -0.000001 -1.000000 0.000003
vn -0.000001 -1.000000 0.000003
vn -0.000001 -1.000000 0.000003
vn -0.000001 -1.000000 0.000003
vn 0.000001 -1.000000 0.000004
vn 0.000001 -1.000000 0.000004
vn 0.000001 -1.000000 0.000004
vn 0.000001 -1.000000 0.000004
vn 0.000002 -1.000000 0.000003
vn 0.000002 -1.000000 0.000003
vn 0.000002 -1.000000 0.000003
vn 0.000002 -1.000000 0.000003
vn 0.000003 -1.000000 0.000003
vn 0.000003 -1.000000 0.000003
vn 0.000003 -1.000000 0.000003
vn 0.000003 -1.000000 0.000003
vn 0.000003 -1.000000 0.000002
vn 0.000003 -1.000000 0.000002
vn 0.000003 -1.000000 0.000002
vn 0.000003 -1.000000 0.000002
vn 0.000003 -1.000000 0.000001
vn 0.000003 -1.000000 0.000001
vn 0.000003 -1.000000 0.000001
vn 0.000003 -1.000000 0.000001
vn -0.000003 -1.000000 0.000001
vn -0.000003 -1.000000 0.000001
vn -0.000003 -1.000000 0.000001
vn -0.000003 -1.000000 0.000001
vn -0.707107 0.000000 0.707106
vn -0.707107 0.000000 0.707106
vn -0.707107 0.000000 0.707106
vn -0.707107 0.000000 0.707106
vn -0.453992 0.000000 0.891005
vn -0.453992 0.000000 0.891005
vn -0.453992 0.000000 0.891005
vn -0.453992 0.000000 0.891005
vn -0.156436 0.000000 0.987688
vn -0.156436 0.000000 0.987688
vn -0.156436 0.000000 0.987688
vn -0.156436 0.000000 0.987688
vn 0.156436 0.000000 0.987688
vn 0.156436 0.000000 0.987688
vn 0.156436 0.000000 0.987688
vn 0.156436 0.000000 0.987688
vn 0.453993 0.000000 0.891005
vn 0.453993 0.000000 0.891005
vn 0.453993 0.000000 0.891005
vn 0.453993 0.000000 0.891005
vn 0.707107 0.000000 0.707107
vn 0.707107 0.000000 0.707107
vn 0.707107 0.000000 0.707107
vn 0.707107 0.000000 0.707107
vn 0.891005 0.000000 0.453993
vn 0.891005 0.000000 0.453993
vn 0.891005 0.000000 0.453993
vn 0.891005 0.000000 0.453993
vn 0.987688 0.000000 0.156437
vn 0.987688 0.000000 0.156437
vn 0.987688 0.000000 0.156437
vn 0.987688 0.000000 0.156437
vn -0.987688 0.000000 0.156436
vn -0.987688 0.000000 0.156436
vn -0.987688 0.000000 0.156436
vn -0.987688 0.000000 0.156436
vn -0.891006 0.000000 0.453992
vn -0.891006 0.000000 0.453992
vn -0.891006 0.000000 0.453992
vn -0.891006 0.000000 0.453992
vn 0.000000 0.000000 1.000000
vn 0.000000 0.000000 1.000000
vn 0.000000 0.000000 1.000000
vn 0.000000 0.000000 1.000000
vn -0.000000 0.000000 1.000000
vn -0.000000 0.000000 1.000000
vn -0.000000 0.000000 1.000000
vn -0.000000 0.000000 1.000000
s 1
g pTorus1
usemtl lambert2SG
f 2/1/1 1/2/2 12/3/3 13/4/4
f 3/7/5 2/1/1 13/4/4 14/8/6
f 4/77/7 3/78/5 14/79/6 15/80/8
f 5/81/9 4/77/7 15/80/8 16/82/10
f 6/83/11 5/81/9 16/82/10 17/84/12
f 7/85/13 6/83/11 17/84/12 18/86/14
f 8/10/15 7/13/13 18/14/14 19/11/16
f 9/9/17 8/10/15 19/11/16 20/12/18
f 10/15/19 9/9/17 20/12/18 21/16/20
f 1/2/2 11/5/21 22/6/22 12/3/3
s off
f 1/33/23 2/34/24 24/35/25 23/36/26
f 2/34/27 3/37/28 25/38/29 24/35/30
f 3/37/31 4/41/32 26/42/33 25/38/34
f 4/41/35 5/43/36 27/44/37 26/42/38
f 5/43/39 6/45/40 28/46/41 27/44/42
f 6/45/43 7/47/44 29/48/45 28/46/46
f 7/47/47 8/49/48 30/50/49 29/48/50
f 8/49/51 9/51/52 31/52/53 30/50/54
f 9/51/55 10/53/56 32/54/57 31/52/58
f 11/39/59 1/33/60 23/36/61 33/40/62
f 13/55/63 12/56/64 34/57/65 35/58/66
f 14/61/67 13/55/68 35/58/69 36/62/70
f 15/63/71 14/61/72 36/62/73 37/64/74
f 16/65/75 15/63/76 37/64/77 38/66/78
f 17/67/79 16/65/80 38/66/81 39/68/82
f 18/69/83 17/67/84 39/68/85 40/70/86
f 19/71/87 18/69/88 40/70/89 41/72/90
f 20/73/91 19/71/92 41/72/93 42/74/94
f 21/75/95 20/73/96 42/74/97 43/76/98
f 12/56/99 22/59/100 44/60/101 34/57/102
f 24/29/103 25/31/104 36/32/105 35/30/106
f 25/87/107 26/88/108 37/89/109 36/90/110
f 26/88/111 27/91/112 38/92/113 37/89/114
f 27/91/115 28/93/116 39/94/117 38/92/118
f 28/93/119 29/95/120 40/96/121 39/94/122
f 29/23/123 30/17/124 41/20/125 40/24/126
f 30/17/127 31/18/128 42/19/129 41/20/130
f 31/18/131 32/21/132 43/22/133 42/19/134
f 33/25/135 23/26/136 34/27/137 44/28/138
f 23/26/139 24/29/140 35/30/141 34/27/142
f 21/97/143 43/98/144 32/99/145 10/100/146
f 22/101/147 11/102/148 33/103/149 44/104/150
